<?xml version="1.0" ?><!DOCTYPE svg  PUBLIC '-//W3C//DTD SVG 1.1//EN'  'http://www.w3.org/Graphics/SVG/1.1/DTD/svg11.dtd'><svg enable-background="new 0 0 128 128" id="Слой_1" version="1.1" viewBox="0 0 128 128" xml:space="preserve" xmlns="http://www.w3.org/2000/svg" xmlns:xlink="http://www.w3.org/1999/xlink"><g><circle cx="64" cy="64" fill="#DCD9A0" r="62"/><g><g><path d="M31.1,87.5h72.4V74.3V16.2C92.8,7.3,79,2,64,2S35.2,7.3,24.5,16.2v64.7C24.5,84.6,27.4,87.5,31.1,87.5z" fill="#A8605E"/></g><g opacity="0.1"><rect fill="#050607" height="11.9" width="2.7" x="100.7" y="75"/></g><g opacity="0.1"><path d="M31.1,87.5h6.6V7.9c-4.7,2.2-9.2,5-13.2,8.4v64.7C24.5,84.6,27.4,87.5,31.1,87.5z" fill="#050607"/></g><g><path d="M24.7,80.9c0,3.4,2.5,6.2,5.6,6.2h70.4V74.7H30.3C27.2,74.7,24.7,77.5,24.7,80.9z" fill="#E8E7E7"/></g><g><path d="M100.7,73.7H30.3c-3.6,0-6.6,3.2-6.6,7.2c0,4,3,7.2,6.6,7.2h70.4c0.6,0,1-0.4,1-1V74.7     C101.7,74.2,101.2,73.7,100.7,73.7z M99.7,86.1H30.3c-2.5,0-4.6-2.3-4.6-5.2s2.1-5.2,4.6-5.2h69.4V86.1z" fill="#252525"/></g><g><path d="M31.1,88.5h72.4c0.6,0,1-0.4,1-1V17.1c-0.7-0.6-1.3-1.1-2-1.7v71.1H31.1c-3.1,0-5.6-2.5-5.6-5.6V15.4     c-0.7,0.5-1.3,1.1-2,1.7v63.8C23.5,85.1,26.9,88.5,31.1,88.5z" fill="#252525"/></g><g><path d="M24.5,81.9c0.6,0,1-0.4,1-1c0-3.1,2.5-5.6,5.6-5.6h6.6c0.6,0,1-0.4,1-1V7.4c-0.7,0.3-1.3,0.6-2,0.9v65     h-5.6c-2.2,0-4.2,0.9-5.6,2.5V15.4c-0.7,0.5-1.3,1.1-2,1.7v63.8C23.5,81.5,23.9,81.9,24.5,81.9z" fill="#252525"/></g><g><rect fill="#F2D856" height="10" width="5" x="37.3" y="80"/></g><g><path d="M42.3,79h-5c-0.6,0-1,0.4-1,1v10c0,0.6,0.4,1,1,1h5c0.6,0,1-0.4,1-1V80C43.3,79.5,42.9,79,42.3,79z      M41.3,89h-3v-8h3V89z" fill="#252525"/></g><g><path d="M55.7,32.8h29c2.8,0,5-2.2,5-5V12.9c0-2.8-2.2-5-5-5h-29c-2.8,0-5,2.2-5,5v14.9     C50.7,30.5,52.9,32.8,55.7,32.8z" fill="#E8E7E7"/></g><g><g><path d="M84.7,33.8h-29c-3.3,0-6-2.7-6-6V12.9c0-3.3,2.7-6,6-6h29c3.3,0,6,2.7,6,6v14.9      C90.7,31.1,88,33.8,84.7,33.8z M55.7,8.9c-2.2,0-4,1.8-4,4v14.9c0,2.2,1.8,4,4,4h29c2.2,0,4-1.8,4-4V12.9c0-2.2-1.8-4-4-4H55.7z      " fill="#252525"/></g></g><g><path d="     M103.5,74.3" fill="none" stroke="#252525" stroke-linecap="round" stroke-linejoin="round" stroke-miterlimit="10" stroke-width="2"/></g><g><path d="     M37.7,74.3" fill="none" stroke="#252525" stroke-linecap="round" stroke-linejoin="round" stroke-miterlimit="10" stroke-width="2"/></g><g><path d="M103.5,73.7h-3.7c-0.6,0-1,0.4-1,1s0.4,1,1,1h3.7c0.6,0,1-0.4,1-1S104.1,73.7,103.5,73.7z" fill="#252525"/></g></g></g></svg>